<svg width="33" height="32" viewBox="0 0 33 32" fill="none" xmlns="http://www.w3.org/2000/svg">
<g id="Icon">
<g id="Icon_2">
<path d="M2.5759 11.3796C2.09412 12.8322 1.83331 14.3856 1.83331 15.9999C1.83331 21.5391 4.90398 26.3611 9.43592 28.8565L14.7447 16.6889L2.5759 11.3796Z" fill="white"/>
<path d="M3.64343 8.93593L15.1666 13.9636V1.39307C10.1936 1.84121 5.93634 4.77168 3.64343 8.93593Z" fill="white"/>
<path d="M16.5 30.6666C14.8857 30.6666 13.3322 30.4058 11.8796 29.924L17.7107 16.5593C17.7516 16.4708 17.7832 16.377 17.804 16.2793C17.8262 16.1764 17.8357 16.0727 17.8333 15.9702V1.39307C25.3086 2.0667 31.1666 8.34922 31.1666 15.9999C31.1666 24.1001 24.6002 30.6666 16.5 30.6666Z" fill="white"/>
</g>
</g>
</svg>
