<svg width="33" height="32" viewBox="0 0 33 32" fill="none" xmlns="http://www.w3.org/2000/svg">
<g id="Icon">
<path id="Icon_2" d="M10.7769 8.3913C11.0268 7.86912 11.1667 7.28428 11.1667 6.66675C11.1667 4.45761 9.37583 2.66675 7.16669 2.66675C4.95755 2.66675 3.16669 4.45761 3.16669 6.66675C3.16669 8.87589 4.95755 10.6667 7.16669 10.6667C7.78422 10.6667 8.36906 10.5268 8.89124 10.2769L10.9379 12.3236C10.2399 13.3775 9.83335 14.6413 9.83335 16.0001C9.83335 17.3589 10.2399 18.6227 10.9379 19.6766L9.19075 21.4237C8.97044 21.3648 8.7389 21.3334 8.50002 21.3334C7.02726 21.3334 5.83335 22.5273 5.83335 24.0001C5.83335 25.4728 7.02726 26.6667 8.50002 26.6667C9.97278 26.6667 11.1667 25.4728 11.1667 24.0001C11.1667 23.7612 11.1353 23.5297 11.0764 23.3094L12.8235 21.5622C13.8774 22.2602 15.1412 22.6667 16.5 22.6667C17.8588 22.6667 19.1226 22.2602 20.1765 21.5622L22.2232 23.6089C21.9733 24.131 21.8334 24.7159 21.8334 25.3334C21.8334 27.5426 23.6242 29.3334 25.8334 29.3334C28.0425 29.3334 29.8334 27.5426 29.8334 25.3334C29.8334 23.1243 28.0425 21.3334 25.8334 21.3334C25.2158 21.3334 24.631 21.4734 24.1088 21.7232L22.0622 19.6766C22.7602 18.6227 23.1667 17.3589 23.1667 16.0001C23.1667 14.6413 22.7602 13.3775 22.0622 12.3236L23.8093 10.5764C24.0296 10.6353 24.2611 10.6667 24.5 10.6667C25.9728 10.6667 27.1667 9.47284 27.1667 8.00008C27.1667 6.52732 25.9728 5.33341 24.5 5.33341C23.0273 5.33341 21.8334 6.52732 21.8334 8.00008C21.8334 8.23896 21.8648 8.4705 21.9237 8.69081L20.1765 10.4379C19.1226 9.73992 17.8588 9.33342 16.5 9.33342C15.1412 9.33342 13.8774 9.73992 12.8235 10.4379L10.7769 8.3913Z" fill="white"/>
</g>
</svg>
