<svg width="33" height="32" viewBox="0 0 33 32" fill="none" xmlns="http://www.w3.org/2000/svg">
<g id="Icon">
<g id="Icon_2">
<path d="M23.5572 14.2763L15.3541 22.4793C14.0989 20.2473 12.2528 18.4013 10.0208 17.146L20.3248 6.84194C20.8528 6.31393 21.1169 6.04992 21.4213 5.951C21.6891 5.86399 21.9775 5.86399 22.2453 5.951C22.5498 6.04992 22.8138 6.31393 23.3418 6.84195L25.6582 9.1583C26.1862 9.68632 26.4502 9.95033 26.5491 10.2548C26.6361 10.5226 26.6361 10.811 26.5491 11.0788C26.4502 11.3833 26.1862 11.6473 25.6582 12.1753L25.4428 12.3906L27.6381 14.5859C28.4191 15.367 28.4191 16.6333 27.6381 17.4143L24.1095 20.9429C23.5888 21.4636 22.7446 21.4636 22.2239 20.9429C21.7032 20.4222 21.7032 19.578 22.2239 19.0573L25.281 16.0001L23.5572 14.2763Z" fill="white"/>
<path d="M8.18147 19.6223L7.18256 22.6191C6.74829 23.9219 6.53116 24.5733 6.68563 25.0064C6.82005 25.3834 7.1167 25.6801 7.49366 25.8145C7.92684 25.9689 8.57825 25.7518 9.88102 25.3176L12.8778 24.3186C13.0288 24.2683 13.148 24.2285 13.2477 24.1933C12.1637 22.067 10.4331 20.3364 8.30685 19.2524C8.27156 19.3521 8.23179 19.4714 8.18147 19.6223Z" fill="white"/>
</g>
</g>
</svg>
