<svg width="33" height="32" viewBox="0 0 33 32" fill="none" xmlns="http://www.w3.org/2000/svg">
<g id="Icon">
<path id="Icon_2" d="M24.5 11.9999C27.4455 11.9999 29.8333 9.6121 29.8333 6.66658C29.8333 3.72107 27.4455 1.33325 24.5 1.33325C21.5544 1.33325 19.1666 3.72107 19.1666 6.66658C19.1666 7.16954 19.2362 7.65624 19.3664 8.11757L12.2887 12.2462C11.3222 11.2708 9.98163 10.6666 8.49996 10.6666C5.55444 10.6666 3.16663 13.0544 3.16663 15.9999C3.16663 18.9454 5.55444 21.3333 8.49996 21.3333C9.98163 21.3333 11.3222 20.7291 12.2887 19.7536L19.3664 23.8823C19.2362 24.3436 19.1666 24.8303 19.1666 25.3333C19.1666 28.2788 21.5544 30.6666 24.5 30.6666C27.4455 30.6666 29.8333 28.2788 29.8333 25.3333C29.8333 22.3877 27.4455 19.9999 24.5 19.9999C23.0183 19.9999 21.6777 20.6041 20.7113 21.5796L13.6335 17.4509C13.7637 16.9896 13.8333 16.5029 13.8333 15.9999C13.8333 15.497 13.7637 15.0103 13.6335 14.5489L20.7113 10.4203C21.6777 11.3957 23.0183 11.9999 24.5 11.9999Z" fill="white"/>
</g>
</svg>
