<svg width="129" height="32" viewBox="0 0 129 32" fill="none" xmlns="http://www.w3.org/2000/svg">
<g id="Company Logo">
<g id="Logo">
<path d="M34.7015 5.16481C33.5759 4.38908 32.107 4.00027 30.2949 4.00027H23.2795C22.724 4.00027 22.4171 4.27878 22.3588 4.83525L19.5089 22.7682C19.4793 22.9443 19.5233 23.1054 19.6404 23.2518C19.7569 23.3985 19.9034 23.4715 20.0788 23.4715H23.4111C23.9956 23.4715 24.3168 23.1937 24.3758 22.6365L25.1649 17.8018C25.1937 17.5675 25.2965 17.377 25.4719 17.2303C25.6472 17.0839 25.8665 16.9881 26.1296 16.9443C26.3927 16.9007 26.6407 16.8787 26.875 16.8787C27.1086 16.8787 27.3861 16.8936 27.7082 16.9228C28.0294 16.9519 28.2342 16.9663 28.322 16.9663C30.8357 16.9663 32.8088 16.2563 34.2413 14.8346C35.6732 13.4137 36.3899 11.4433 36.3899 8.92269C36.3899 7.19388 35.8266 5.94135 34.7015 5.16441V5.16481ZM31.0845 10.5495C30.9378 11.5753 30.5583 12.2489 29.9445 12.5713C29.3305 12.8942 28.4536 13.0549 27.3138 13.0549L25.8668 13.0987L26.6123 8.3955C26.6705 8.07347 26.8604 7.91225 27.1822 7.91225H28.0155C29.1842 7.91225 30.0324 8.08113 30.5586 8.41754C31.0844 8.75475 31.2599 9.46559 31.0845 10.5495Z" fill="#003087"/>
<path d="M108.736 4H105.492C105.169 4 104.979 4.16122 104.922 4.48379L102.071 22.7687L102.028 22.8566C102.028 23.0038 102.086 23.1423 102.203 23.2743C102.319 23.4059 102.466 23.4719 102.641 23.4719H105.536C106.09 23.4719 106.397 23.1941 106.457 22.6369L109.306 4.65965V4.61599C109.306 4.20556 109.116 4.00054 108.736 4.00054V4Z" fill="#009CDE"/>
<path d="M69.5375 11.0775C69.5375 10.9313 69.4788 10.7919 69.3626 10.6604C69.2454 10.5286 69.1138 10.4622 68.968 10.4622H65.5918C65.2697 10.4622 65.0066 10.6094 64.8023 10.9017L60.1548 17.7587L58.2255 11.1656C58.0786 10.6972 57.7575 10.4622 57.261 10.4622H53.972C53.8255 10.4622 53.694 10.5283 53.5778 10.6604C53.4606 10.7919 53.4024 10.9316 53.4024 11.0775C53.4024 11.1365 53.6874 12.0006 54.2573 13.6709C54.8272 15.3416 55.441 17.1438 56.0988 19.0779C56.7565 21.0116 57.0998 22.0377 57.1291 22.1539C54.732 25.4363 53.534 27.1944 53.534 27.4285C53.534 27.8098 53.7236 28 54.104 28H57.4801C57.8015 28 58.0644 27.8538 58.2695 27.5607L69.4504 11.385C69.5085 11.327 69.5375 11.2249 69.5375 11.0774V11.0775Z" fill="#003087"/>
<path d="M100.976 10.4622H97.6437C97.234 10.4622 96.9865 10.9459 96.8987 11.913C96.1377 10.7412 94.7502 10.1545 92.7328 10.1545C90.6283 10.1545 88.8376 10.9459 87.3618 12.5282C85.8854 14.1106 85.1476 15.9719 85.1476 18.1107C85.1476 19.8399 85.6518 21.217 86.66 22.2422C87.6685 23.2685 89.0203 23.7806 90.7163 23.7806C91.5639 23.7806 92.4261 23.6045 93.303 23.2532C94.1799 22.9016 94.8663 22.433 95.3641 21.8467C95.3641 21.8761 95.3343 22.0075 95.2765 22.2418C95.2174 22.4766 95.1886 22.653 95.1886 22.7693C95.1886 23.2387 95.3781 23.4724 95.7587 23.4724H98.7844C99.3391 23.4724 99.661 23.1946 99.7484 22.6375L101.546 11.1654C101.575 10.9894 101.532 10.8286 101.415 10.6819C101.297 10.5357 101.151 10.4622 100.976 10.4622ZM95.2542 19.1215C94.5088 19.8541 93.6098 20.2202 92.5576 20.2202C91.7095 20.2202 91.0232 19.9862 90.4968 19.5171C89.9703 19.0493 89.7073 18.4045 89.7073 17.5831C89.7073 16.4997 90.0727 15.5832 90.8038 14.8361C91.5336 14.0888 92.4406 13.7153 93.5222 13.7153C94.34 13.7153 95.0197 13.957 95.561 14.4403C96.1013 14.9239 96.3725 15.5906 96.3725 16.4406C96.3722 17.4954 95.9995 18.3893 95.2542 19.1215Z" fill="#009CDE"/>
<path d="M51.166 10.4622H47.8336C47.4237 10.4622 47.1758 10.9459 47.088 11.913C46.2987 10.7412 44.9102 10.1545 42.9225 10.1545C40.8178 10.1545 39.0272 10.9459 37.5512 12.5282C36.0748 14.1106 35.3371 15.9719 35.3371 18.1107C35.3371 19.8399 35.8414 21.217 36.8499 22.2422C37.8584 23.2685 39.21 23.7806 40.9056 23.7806C41.7237 23.7806 42.5719 23.6045 43.4487 23.2532C44.3256 22.9016 45.0272 22.433 45.5533 21.8467C45.4361 22.198 45.3779 22.5058 45.3779 22.7693C45.3779 23.2387 45.5678 23.4724 45.9479 23.4724H48.9733C49.5282 23.4724 49.8502 23.1946 49.9379 22.6375L51.7356 11.1654C51.7644 10.9894 51.7207 10.8286 51.6041 10.6819C51.4871 10.5357 51.3411 10.4622 51.166 10.4622ZM45.444 19.1433C44.6984 19.8621 43.7845 20.2202 42.7036 20.2202C41.8554 20.2202 41.1758 19.9862 40.6647 19.5171C40.1528 19.0493 39.8972 18.4045 39.8972 17.5831C39.8972 16.4997 40.2625 15.5832 40.9935 14.8361C41.7238 14.0888 42.6301 13.7152 43.712 13.7152C44.5301 13.7152 45.2097 13.957 45.751 14.4403C46.2914 14.9239 46.5621 15.5906 46.5621 16.4406C46.562 17.5248 46.1894 18.4261 45.444 19.1433Z" fill="#003087"/>
<path d="M84.5117 5.16481C83.3862 4.38908 81.9177 4.00027 80.1052 4.00027H73.1335C72.5487 4.00027 72.2269 4.27878 72.1689 4.83525L69.3188 22.7682C69.2892 22.9443 69.3332 23.1054 69.4504 23.2518C69.5664 23.3985 69.7132 23.4715 69.8887 23.4715H73.4839C73.8347 23.4715 74.0684 23.2813 74.1857 22.9002L74.9749 17.8018C75.004 17.5675 75.1062 17.377 75.2819 17.2303C75.4574 17.0839 75.6764 16.9881 75.9397 16.9443C76.2025 16.9007 76.4506 16.8787 76.685 16.8787C76.9187 16.8787 77.1962 16.8936 77.5179 16.9228C77.8393 16.9519 78.0446 16.9663 78.1318 16.9663C80.646 16.9663 82.6186 16.2563 84.0512 14.8346C85.4836 13.4137 86.1997 11.4433 86.1997 8.92269C86.1998 7.19388 85.6368 5.94121 84.5117 5.16441V5.16481ZM80.0176 12.3953C79.3744 12.8348 78.4096 13.0545 77.1238 13.0545L75.7205 13.0985L76.4659 8.39523C76.5238 8.07333 76.7138 7.91184 77.0357 7.91184H77.8247C78.4679 7.91184 78.9793 7.94127 79.3599 7.99971C79.7392 8.05856 80.1052 8.2414 80.4559 8.54893C80.8069 8.85672 80.9821 9.30384 80.9821 9.8896C80.9821 11.1208 80.6602 11.9555 80.0176 12.3953Z" fill="#009CDE"/>
</g>
</g>
</svg>
