<svg width="129" height="32" viewBox="0 0 129 32" fill="none" xmlns="http://www.w3.org/2000/svg">
<g id="Company Logo">
<g id="Logo">
<path d="M47.1473 22.4416L48.3172 19.8106C49.5815 20.7241 51.2609 21.1992 52.9214 21.1992C54.1479 21.1992 54.9215 20.7424 54.9215 20.0481C54.9027 18.1114 47.5813 19.6279 47.5247 14.7678C47.5059 12.3012 49.7702 10.4011 52.978 10.4011C54.8838 10.4011 56.7896 10.8579 58.1482 11.8993L57.0538 14.5851C55.8084 13.8177 54.2611 13.2696 52.7893 13.2696C51.7892 13.2696 51.1288 13.7264 51.1288 14.311C51.1476 16.2112 58.5256 15.1698 58.6011 19.8106C58.6011 22.3319 56.3933 24.1042 53.2233 24.1042C50.9023 24.1042 48.7701 23.5744 47.1473 22.4416Z" fill="black"/>
<path d="M92.0376 18.8605C91.4527 19.8472 90.3582 20.5231 89.094 20.5231C87.2259 20.5231 85.7164 19.0615 85.7164 17.2527C85.7164 15.4439 87.2259 13.9822 89.094 13.9822C90.3582 13.9822 91.4527 14.6582 92.0376 15.6449L95.2643 13.9091C94.0567 11.8262 91.7357 10.4011 89.094 10.4011C85.188 10.4011 82.018 13.4706 82.018 17.2527C82.018 21.0347 85.188 24.1042 89.094 24.1042C91.7546 24.1042 94.0567 22.6974 95.2643 20.5962L92.0376 18.8605Z" fill="black"/>
<path d="M60.2238 4.71887H64.2619V23.8484H60.2238V4.71887Z" fill="black"/>
<path d="M96.8493 4.71887V23.8484H100.887V18.1114L105.68 23.8484H110.85L104.756 17.0335L110.398 10.6752H105.454L100.887 15.9555V4.71887H96.8493Z" fill="black"/>
<path d="M76.2628 18.897C75.6778 19.8288 74.4702 20.5231 73.1116 20.5231C71.2435 20.5231 69.734 19.0615 69.734 17.2527C69.734 15.4439 71.2435 13.9822 73.1116 13.9822C74.4702 13.9822 75.6778 14.713 76.2628 15.6631V18.897ZM76.2628 10.6752V12.2282C75.6024 11.1502 73.9608 10.4011 72.2437 10.4011C68.6962 10.4011 65.9035 13.4341 65.9035 17.2344C65.9035 21.0347 68.6962 24.1042 72.2437 24.1042C73.9608 24.1042 75.6024 23.3551 76.2628 22.2772V23.8302H80.3009V10.6752H76.2628Z" fill="black"/>
<path d="M22.5637 19.172C22.5637 20.5669 21.4363 21.6943 20.0414 21.6943C18.6465 21.6943 17.5191 20.5669 17.5191 19.172C17.5191 17.7771 18.6465 16.6497 20.0414 16.6497H22.5637V19.172Z" fill="#E01E5A"/>
<path d="M23.8249 19.172C23.8249 17.7771 24.9522 16.6497 26.3471 16.6497C27.7421 16.6497 28.8694 17.7771 28.8694 19.172V25.4777C28.8694 26.8726 27.7421 28 26.3471 28C24.9522 28 23.8249 26.8726 23.8249 25.4777V19.172Z" fill="#E01E5A"/>
<path d="M26.3471 9.04459C24.9522 9.04459 23.8249 7.9172 23.8249 6.5223C23.8249 5.12739 24.9522 4 26.3471 4C27.7421 4 28.8694 5.12739 28.8694 6.5223V9.04459H26.3471Z" fill="#36C5F0"/>
<path d="M26.3471 10.3248C27.7421 10.3248 28.8694 11.4523 28.8694 12.8472C28.8694 14.2421 27.7421 15.3694 26.3471 15.3694H20.0223C18.6274 15.3694 17.5 14.2421 17.5 12.8472C17.5 11.4523 18.6274 10.3248 20.0223 10.3248H26.3471Z" fill="#36C5F0"/>
<path d="M36.4554 12.8472C36.4554 11.4523 37.5828 10.3248 38.9777 10.3248C40.3726 10.3248 41.5 11.4523 41.5 12.8472C41.5 14.2421 40.3726 15.3694 38.9777 15.3694H36.4554V12.8472Z" fill="#2EB67D"/>
<path d="M35.1943 12.8472C35.1943 14.2421 34.0669 15.3694 32.672 15.3694C31.2771 15.3694 30.1497 14.2421 30.1497 12.8472V6.5223C30.1497 5.12739 31.2771 4 32.672 4C34.0669 4 35.1943 5.12739 35.1943 6.5223V12.8472Z" fill="#2EB67D"/>
<path d="M32.672 22.9554C34.0669 22.9554 35.1943 24.0828 35.1943 25.4777C35.1943 26.8726 34.0669 28 32.672 28C31.2771 28 30.1497 26.8726 30.1497 25.4777V22.9554H32.672Z" fill="#ECB22E"/>
<path d="M32.672 21.6943C31.2771 21.6943 30.1497 20.5669 30.1497 19.172C30.1497 17.7771 31.2771 16.6497 32.672 16.6497H38.9969C40.3918 16.6497 41.5191 17.7771 41.5191 19.172C41.5191 20.5669 40.3918 21.6943 38.9969 21.6943H32.672Z" fill="#ECB22E"/>
</g>
</g>
</svg>
