<svg width="161" height="40" viewBox="0 0 161 40" fill="none" xmlns="http://www.w3.org/2000/svg">
<g id="Company Logo">
<g id="Lookscout">
<path d="M41.821 11.5664H45.3702V25.0892H51.9481V28.1413H41.821V11.5664Z" fill="white"/>
<path d="M53.5459 25.326C53.0025 24.3247 52.7289 23.1993 52.752 22.0604C52.7289 20.9214 53.0025 19.796 53.5459 18.7948C54.0625 17.8592 54.8449 17.0978 55.7941 16.6066C56.846 16.0995 57.9987 15.8361 59.1664 15.8361C60.3342 15.8361 61.4869 16.0995 62.5388 16.6066C63.4866 17.0997 64.2684 17.8607 64.787 18.7948C65.3278 19.7969 65.6001 20.9219 65.5775 22.0604C65.6029 23.2034 65.3304 24.3334 64.787 25.3393C64.2649 26.2674 63.4837 27.0232 62.5388 27.5142C61.4869 28.0213 60.3342 28.2847 59.1664 28.2847C57.9987 28.2847 56.846 28.0213 55.7941 27.5142C54.8449 27.023 54.0625 26.2615 53.5459 25.326ZM62.1952 22.0604C62.2327 21.1439 61.9378 20.2448 61.3646 19.5286C61.0948 19.2128 60.7567 18.9625 60.3759 18.7966C59.995 18.6308 59.5814 18.5537 59.1664 18.5713C58.7517 18.5546 58.3387 18.6335 57.9593 18.8018C57.5799 18.9701 57.2442 19.2233 56.9782 19.542C56.4085 20.2592 56.1182 21.1587 56.161 22.0737C56.1182 22.9887 56.4085 23.8882 56.9782 24.6055C57.2442 24.9241 57.5799 25.1774 57.9593 25.3457C58.3387 25.514 58.7517 25.5928 59.1664 25.5762C59.5836 25.5905 59.9985 25.5093 60.3795 25.3388C60.7605 25.1682 61.0974 24.9128 61.3646 24.5921C61.9378 23.876 62.2327 22.9769 62.1952 22.0604Z" fill="white"/>
<path d="M67.7424 25.326C67.199 24.3247 66.9254 23.1994 66.9485 22.0604C66.9254 20.9214 67.199 19.7961 67.7424 18.7948C68.259 17.8592 69.0414 17.0978 69.9906 16.6066C71.0419 16.0995 72.1941 15.8362 73.3613 15.8362C74.5285 15.8362 75.6806 16.0995 76.7319 16.6066C77.6811 17.0978 78.4635 17.8592 78.9802 18.7948C79.5235 19.7961 79.7971 20.9214 79.7741 22.0604C79.7999 23.2039 79.5262 24.3343 78.9802 25.3393C78.46 26.2689 77.6782 27.0251 76.7319 27.5142C75.6806 28.0213 74.5285 28.2846 73.3613 28.2846C72.1941 28.2846 71.0419 28.0213 69.9906 27.5142C69.0414 27.023 68.259 26.2616 67.7424 25.326ZM76.3917 22.0604C76.433 21.1456 76.1428 20.2466 75.5745 19.5286C75.2951 19.2228 74.955 18.9786 74.5759 18.8115C74.1969 18.6443 73.7872 18.558 73.3729 18.558C72.9587 18.558 72.549 18.6443 72.1699 18.8115C71.7909 18.9786 71.4508 19.2228 71.1714 19.5286C70.609 20.2489 70.3248 21.1477 70.3708 22.0604C70.3286 22.9748 70.6176 23.8737 71.1848 24.5922C71.4642 24.898 71.8042 25.1422 72.1833 25.3093C72.5623 25.4764 72.972 25.5628 73.3863 25.5628C73.8005 25.5628 74.2102 25.4764 74.5893 25.3093C74.9683 25.1422 75.3084 24.898 75.5878 24.5922C76.1514 23.8723 76.4368 22.9735 76.3917 22.0604Z" fill="white"/>
<path d="M84.9543 11.5664V21.1598L89.7343 15.9795H93.4736L89.1372 20.7361L93.7204 28.1413H89.8544L86.7789 23.2212L84.9543 25.1826V28.1413H81.6187V11.5664H84.9543Z" fill="white"/>
<path d="M97.8266 25.396C98.3651 25.7534 99.002 25.933 99.6479 25.9097C100.223 25.9394 100.796 25.8247 101.316 25.5762C101.507 25.4896 101.669 25.3485 101.78 25.1705C101.892 24.9924 101.948 24.7855 101.943 24.5755C101.953 24.4433 101.933 24.3105 101.884 24.1873C101.834 24.0641 101.758 23.9539 101.659 23.865C101.422 23.6909 101.146 23.5765 100.855 23.5314C100.522 23.4614 99.9414 23.378 99.1509 23.2846C98.2481 23.1761 97.3556 22.9943 96.4823 22.7409C95.8309 22.5535 95.2421 22.194 94.7778 21.7001C94.332 21.1726 94.103 20.4954 94.1374 19.8055C94.1287 19.0537 94.3627 18.3191 94.8045 17.7107C95.2701 17.0783 95.9049 16.5903 96.6358 16.3031C97.501 15.9581 98.4264 15.7891 99.3577 15.8061C101.014 15.8216 102.349 16.1763 103.36 16.8701C103.846 17.1842 104.25 17.6107 104.536 18.1135C104.822 18.6163 104.983 19.1806 105.005 19.7588H101.836C101.811 19.5286 101.732 19.3074 101.607 19.1124C101.482 18.9174 101.314 18.754 101.116 18.6347C100.616 18.325 100.035 18.1727 99.4478 18.1977C98.9168 18.1731 98.3893 18.2954 97.9233 18.5513C97.7494 18.6413 97.6034 18.7771 97.5011 18.9441C97.3988 19.1111 97.3441 19.3028 97.3429 19.4986C97.3353 19.6222 97.3596 19.7457 97.4133 19.8572C97.467 19.9687 97.5485 20.0646 97.6498 20.1357C97.8933 20.2939 98.1671 20.3996 98.4537 20.4459C98.7873 20.506 99.3377 20.5794 100.122 20.6561C101.763 20.8473 103.021 21.1987 103.898 21.7102C104.771 22.2238 105.208 23.1011 105.208 24.3487C105.22 25.1016 104.974 25.8359 104.511 26.4301C104.003 27.0608 103.332 27.5397 102.57 27.8144C101.65 28.1548 100.675 28.32 99.6946 28.3014C98.0067 28.3014 96.6347 27.9267 95.5784 27.1773C95.0762 26.8362 94.6629 26.38 94.3728 25.8468C94.0827 25.3136 93.9242 24.7187 93.9106 24.1118H97.0561C97.0787 24.3703 97.1599 24.6202 97.2934 24.8427C97.4269 25.0652 97.6092 25.2544 97.8266 25.396Z" fill="white"/>
<path d="M112.897 28.2847C111.746 28.3108 110.606 28.0457 109.585 27.5142C108.655 27.0169 107.894 26.2555 107.397 25.326C106.871 24.319 106.607 23.196 106.629 22.0604C106.604 20.9212 106.868 19.7943 107.397 18.7848C107.899 17.8571 108.665 17.0991 109.598 16.6066C110.628 16.0738 111.775 15.8088 112.934 15.8361C114.559 15.8361 115.884 16.2508 116.907 17.0803C117.953 17.945 118.63 19.176 118.801 20.5227H115.335C115.22 19.9638 114.921 19.4598 114.485 19.0917C114.037 18.7279 113.473 18.5384 112.897 18.558C112.498 18.5445 112.102 18.6254 111.74 18.7941C111.378 18.9628 111.062 19.2144 110.816 19.5286C110.269 20.2562 109.993 21.1514 110.035 22.0604C109.993 22.9694 110.269 23.8646 110.816 24.5922C111.06 24.9088 111.376 25.1631 111.738 25.3341C112.1 25.5051 112.497 25.5881 112.897 25.5762C113.485 25.5969 114.061 25.4037 114.518 25.0325C114.964 24.6487 115.261 24.1212 115.359 23.5414H118.791C118.635 24.9029 117.962 26.1521 116.91 27.0305C115.876 27.8667 114.538 28.2847 112.897 28.2847Z" fill="white"/>
<path d="M120.739 25.326C120.196 24.3247 119.922 23.1994 119.945 22.0604C119.922 20.9214 120.196 19.7961 120.739 18.7948C121.256 17.8592 122.038 17.0978 122.987 16.6066C124.039 16.0995 125.191 15.8362 126.358 15.8362C127.525 15.8362 128.677 16.0995 129.729 16.6066C130.678 17.0978 131.46 17.8592 131.977 18.7948C132.52 19.7961 132.794 20.9214 132.771 22.0604C132.797 23.2039 132.523 24.3343 131.977 25.3393C131.461 26.2665 130.686 27.0225 129.745 27.5142C128.694 28.0213 127.542 28.2846 126.375 28.2846C125.208 28.2846 124.055 28.0213 123.004 27.5142C122.049 27.0257 121.26 26.264 120.739 25.326ZM129.389 22.0604C129.43 21.1456 129.14 20.2466 128.571 19.5286C128.292 19.2228 127.952 18.9786 127.573 18.8115C127.194 18.6443 126.784 18.558 126.37 18.558C125.956 18.558 125.546 18.6443 125.167 18.8115C124.788 18.9786 124.448 19.2228 124.168 19.5286C123.601 20.2471 123.312 21.146 123.354 22.0604C123.312 22.9748 123.601 23.8737 124.168 24.5922C124.448 24.898 124.788 25.1422 125.167 25.3093C125.546 25.4764 125.956 25.5628 126.37 25.5628C126.784 25.5628 127.194 25.4764 127.573 25.3093C127.952 25.1422 128.292 24.898 128.571 24.5922C129.141 23.8746 129.432 22.9756 129.392 22.0604H129.389Z" fill="white"/>
<path d="M146.07 28.1413H143.115L142.805 26.6736C142.377 27.2037 141.831 27.6258 141.211 27.9057C140.59 28.1856 139.912 28.3155 139.232 28.2847C138.593 28.3091 137.956 28.2054 137.358 27.9797C136.76 27.754 136.213 27.4108 135.75 26.9705C134.86 26.0965 134.415 24.6333 134.415 22.5807V15.9795H137.751V22.1771C137.751 23.2846 137.944 24.1151 138.331 24.6755C138.533 24.9569 138.803 25.182 139.116 25.3291C139.429 25.4763 139.774 25.5407 140.119 25.5161C140.494 25.533 140.868 25.4565 141.206 25.2935C141.544 25.1305 141.837 24.8861 142.057 24.5821C142.518 23.9584 142.744 23.0844 142.744 21.967V15.9795H146.08L146.07 28.1413Z" fill="white"/>
<path d="M147.254 18.7948V15.9795H149.256V12.5671H152.591V15.9795H155.36V18.7948H152.591V24.1318C152.561 24.4629 152.658 24.7931 152.861 25.0558C152.987 25.1617 153.133 25.2413 153.29 25.29C153.447 25.3387 153.612 25.3555 153.775 25.3393H155.5V28.1546H152.761C150.44 28.1546 149.28 26.9949 149.282 24.6755V18.7948H147.254Z" fill="white"/>
<path d="M22.8205 9.00006L5.5 19.0001V13.0001L17.6282 6.00006L22.8205 9.00006Z" fill="white"/>
<path d="M29.7564 13.0001V16.4616L8.5 28.7308L5.5 27.0001V23.7437L26.9231 11.3719L29.7564 13.0001Z" fill="white"/>
<path d="M12.6026 31.1026L29.7564 21.2052V27.0001L17.6282 34.0001L12.6026 31.1026Z" fill="white"/>
</g>
</g>
</svg>
