<svg width="25" height="24" viewBox="0 0 25 24" fill="none" xmlns="http://www.w3.org/2000/svg">
<g id="Text input">
<path id="Vector" d="M24.2628 12.2759C24.2628 11.4602 24.1967 10.64 24.0556 9.83752H12.7368V14.4585H19.2185C18.9496 15.9489 18.0853 17.2673 16.8199 18.105V21.1034H20.6869C22.9577 19.0133 24.2628 15.9268 24.2628 12.2759Z" fill="white"/>
<path id="Vector_2" d="M12.7373 24.0001C15.9737 24.0001 18.7031 22.9374 20.6917 21.1032L16.8247 18.1048C15.7489 18.8368 14.3599 19.2512 12.7417 19.2512C9.61108 19.2512 6.95666 17.1392 6.00424 14.2996H2.01379V17.3905C4.05091 21.4427 8.20009 24.0001 12.7373 24.0001Z" fill="white"/>
<path id="Vector_3" d="M5.99972 14.3001C5.49706 12.8097 5.49706 11.1959 5.99972 9.70557V6.61462H2.01368C0.311682 10.0054 0.311682 14.0003 2.01368 17.391L5.99972 14.3001Z" fill="white"/>
<path id="Vector_4" d="M12.7373 4.74948C14.4481 4.72302 16.1016 5.36678 17.3406 6.54848L20.7667 3.12243C18.5973 1.08532 15.718 -0.0346491 12.7373 0.000625561C8.20009 0.000625561 4.05091 2.55804 2.01379 6.61462L5.99983 9.70557C6.94784 6.86155 9.60667 4.74948 12.7373 4.74948Z" fill="white"/>
</g>
</svg>
