<svg width="25" height="24" viewBox="0 0 25 24" fill="none" xmlns="http://www.w3.org/2000/svg">
<g id="Social platforms logo">
<path id="Logo" d="M22.1842 18.7033C21.8212 19.5418 21.3916 20.3136 20.8938 21.0232C20.2153 21.9906 19.6598 22.6602 19.2317 23.032C18.568 23.6424 17.8569 23.955 17.0954 23.9728C16.5488 23.9728 15.8896 23.8172 15.1222 23.5017C14.3523 23.1876 13.6447 23.032 12.9978 23.032C12.3193 23.032 11.5916 23.1876 10.8133 23.5017C10.0337 23.8172 9.40576 23.9816 8.92563 23.9979C8.19543 24.0291 7.4676 23.7076 6.74111 23.032C6.27742 22.6276 5.69744 21.9343 5.00265 20.9521C4.25719 19.9033 3.64432 18.687 3.16419 17.3004C2.64998 15.8026 2.39221 14.3523 2.39221 12.9482C2.39221 11.3398 2.73976 9.95259 3.43588 8.79011C3.98298 7.85636 4.7108 7.11979 5.62174 6.57906C6.53267 6.03834 7.51694 5.76279 8.5769 5.74516C9.15688 5.74516 9.91745 5.92456 10.8626 6.27715C11.8051 6.63091 12.4103 6.81032 12.6756 6.81032C12.8739 6.81032 13.5462 6.60054 14.6859 6.18233C15.7636 5.79449 16.6732 5.63391 17.4184 5.69716C19.4376 5.86012 20.9546 6.6561 21.9634 8.09013C20.1576 9.18432 19.2643 10.7169 19.282 12.6829C19.2983 14.2142 19.8539 15.4886 20.9457 16.5004C21.4405 16.97 21.9931 17.333 22.6079 17.5907C22.4745 17.9774 22.3338 18.3477 22.1842 18.7033ZM17.5532 0.480137C17.5532 1.68041 17.1147 2.8011 16.2407 3.8384C15.1859 5.07155 13.9101 5.78412 12.5266 5.67168C12.5089 5.52769 12.4987 5.37614 12.4987 5.21688C12.4987 4.06462 13.0003 2.83147 13.8911 1.82321C14.3358 1.3127 14.9014 0.888228 15.5873 0.549615C16.2718 0.216055 16.9192 0.031589 17.528 0C17.5458 0.160458 17.5532 0.320926 17.5532 0.480121V0.480137Z" fill="white"/>
</g>
</svg>
