<svg width="33" height="32" viewBox="0 0 33 32" fill="none" xmlns="http://www.w3.org/2000/svg">
<g id="Icon">
<g id="Icon_2">
<path d="M16.5 2.66675C11.3454 2.66675 7.16669 6.84542 7.16669 12.0001C7.16669 13.3815 7.46766 14.6962 8.00887 15.8792C8.34596 16.6161 8.7279 17.3403 9.09306 18.03L9.1329 18.1052C9.4895 18.7786 9.82905 19.4198 10.1316 20.0648C10.7601 21.4048 11.1667 22.6373 11.1667 23.8809C11.1667 24.6831 11.817 25.3334 12.6192 25.3334H20.3808C21.183 25.3334 21.8334 24.6831 21.8334 23.8809C21.8334 22.6373 22.2399 21.4048 22.8685 20.0648C23.171 19.4199 23.5105 18.7787 23.8671 18.1053L23.907 18.03C24.2721 17.3403 24.6541 16.6161 24.9912 15.8792C25.5324 14.6962 25.8334 13.3815 25.8334 12.0001C25.8334 6.84542 21.6547 2.66675 16.5 2.66675Z" fill="white"/>
<path d="M12.5 26.6667C11.7636 26.6667 11.1667 27.2637 11.1667 28.0001C11.1667 28.7365 11.7636 29.3334 12.5 29.3334H20.5C21.2364 29.3334 21.8334 28.7365 21.8334 28.0001C21.8334 27.2637 21.2364 26.6667 20.5 26.6667H12.5Z" fill="white"/>
</g>
</g>
</svg>
