<svg width="33" height="32" viewBox="0 0 33 32" fill="none" xmlns="http://www.w3.org/2000/svg">
<g id="Icon">
<g id="Icon_2">
<path d="M11.1667 4C7.48477 4 4.5 6.98477 4.5 10.6667C4.5 14.3486 7.48477 17.3333 11.1667 17.3333C14.8486 17.3333 17.8333 14.3486 17.8333 10.6667C17.8333 6.98477 14.8486 4 11.1667 4Z" fill="white"/>
<path d="M26.316 9.76931C25.8115 9.51225 25.2872 9.41716 24.76 9.37409C24.2606 9.33329 23.6543 9.33331 22.9514 9.33333L20.5 9.33334V10.6667C20.5 15.8213 16.3213 20 11.1667 20H9.83334L9.83333 22.4514C9.83331 23.1543 9.83329 23.7606 9.87409 24.26C9.91716 24.7872 10.0123 25.3115 10.2693 25.816C10.6528 26.5686 11.2647 27.1805 12.0174 27.564C12.5219 27.8211 13.0462 27.9162 13.5733 27.9592C14.0727 28 14.679 28 15.3818 28H22.9514C23.6542 28 24.2606 28 24.76 27.9592C25.2872 27.9162 25.8115 27.8211 26.316 27.564C27.0686 27.1805 27.6805 26.5686 28.064 25.816C28.3211 25.3115 28.4162 24.7872 28.4592 24.26C28.5 23.7606 28.5 23.1543 28.5 22.4515V14.882C28.5 14.1792 28.5 13.5727 28.4592 13.0733C28.4162 12.5462 28.3211 12.0219 28.064 11.5174C27.6805 10.7647 27.0686 10.1528 26.316 9.76931Z" fill="white"/>
</g>
</g>
</svg>
