<svg width="33" height="32" viewBox="0 0 33 32" fill="none" xmlns="http://www.w3.org/2000/svg">
<g id="Icon">
<path id="Icon_2" fill-rule="evenodd" clip-rule="evenodd" d="M1.83331 15.9999C1.83331 7.89974 8.3998 1.33325 16.5 1.33325C24.6002 1.33325 31.1666 7.89974 31.1666 15.9999C31.1666 24.1001 24.6002 30.6666 16.5 30.6666C8.3998 30.6666 1.83331 24.1001 1.83331 15.9999ZM16.5 5.33325C17.2364 5.33325 17.8333 5.93021 17.8333 6.66658V11.8518C17.8333 12.5881 17.2364 13.1851 16.5 13.1851C15.7636 13.1851 15.1666 12.5881 15.1666 11.8518V6.66658C15.1666 5.93021 15.7636 5.33325 16.5 5.33325ZM25.8333 17.3333C26.5697 17.3333 27.1666 16.7363 27.1666 15.9999C27.1666 15.2635 26.5697 14.6666 25.8333 14.6666H20.6481C19.9117 14.6666 19.3148 15.2635 19.3148 15.9999C19.3148 16.7363 19.9117 17.3333 20.6481 17.3333H25.8333ZM16.5 18.8147C17.2364 18.8147 17.8333 19.4117 17.8333 20.1481V25.3333C17.8333 26.0696 17.2364 26.6666 16.5 26.6666C15.7636 26.6666 15.1666 26.0696 15.1666 25.3333V20.1481C15.1666 19.4117 15.7636 18.8147 16.5 18.8147ZM12.3518 17.3333C13.0882 17.3333 13.6852 16.7363 13.6852 15.9999C13.6852 15.2635 13.0882 14.6666 12.3518 14.6666H7.16665C6.43027 14.6666 5.83331 15.2635 5.83331 15.9999C5.83331 16.7363 6.43027 17.3333 7.16665 17.3333H12.3518Z" fill="white"/>
</g>
</svg>
