<svg width="129" height="32" viewBox="0 0 129 32" fill="none" xmlns="http://www.w3.org/2000/svg">
<g id="Company Logo">
<g id="Lookscout">
<path d="M33.5568 9.25315H36.3961V20.0713H41.6585V22.513H33.5568V9.25315Z" fill="#2E343F"/>
<path d="M42.9367 20.2608C42.502 19.4598 42.2831 18.5595 42.3016 17.6483C42.2831 16.7371 42.502 15.8368 42.9367 15.0358C43.35 14.2874 43.9759 13.6782 44.7353 13.2853C45.5768 12.8796 46.4989 12.6689 47.4331 12.6689C48.3673 12.6689 49.2895 12.8796 50.131 13.2853C50.8892 13.6798 51.5147 14.2885 51.9296 15.0358C52.3622 15.8375 52.5801 16.7375 52.562 17.6483C52.5823 18.5627 52.3643 19.4667 51.9296 20.2715C51.5119 21.0139 50.8869 21.6185 50.131 22.0113C49.2895 22.417 48.3673 22.6277 47.4331 22.6277C46.4989 22.6277 45.5768 22.417 44.7353 22.0113C43.9759 21.6184 43.35 21.0092 42.9367 20.2608ZM49.8562 17.6483C49.8862 16.9151 49.6502 16.1958 49.1917 15.6229C48.9759 15.3702 48.7054 15.17 48.4007 15.0373C48.096 14.9046 47.7652 14.843 47.4331 14.857C47.1014 14.8437 46.771 14.9068 46.4674 15.0414C46.1639 15.1761 45.8954 15.3787 45.6826 15.6336C45.2268 16.2074 44.9945 16.927 45.0288 17.659C44.9945 18.391 45.2268 19.1106 45.6826 19.6844C45.8954 19.9393 46.1639 20.1419 46.4674 20.2765C46.771 20.4112 47.1014 20.4743 47.4331 20.4609C47.7669 20.4724 48.0988 20.4074 48.4036 20.271C48.7084 20.1346 48.978 19.9303 49.1917 19.6737C49.6502 19.1008 49.8862 18.3815 49.8562 17.6483Z" fill="#2E343F"/>
<path d="M54.2939 20.2608C53.8592 19.4598 53.6403 18.5595 53.6588 17.6483C53.6403 16.7371 53.8592 15.8368 54.2939 15.0358C54.7072 14.2874 55.3331 13.6782 56.0925 13.2853C56.9335 12.8796 57.8552 12.6689 58.789 12.6689C59.7228 12.6689 60.6445 12.8796 61.4855 13.2853C62.2449 13.6782 62.8708 14.2874 63.2841 15.0358C63.7188 15.8368 63.9377 16.7371 63.9192 17.6483C63.9399 18.5631 63.721 19.4674 63.2841 20.2715C62.868 21.0151 62.2426 21.6201 61.4855 22.0113C60.6445 22.417 59.7228 22.6277 58.789 22.6277C57.8552 22.6277 56.9335 22.417 56.0925 22.0113C55.3331 21.6184 54.7072 21.0092 54.2939 20.2608ZM61.2134 17.6483C61.2464 16.9165 61.0143 16.1973 60.5596 15.6229C60.336 15.3783 60.064 15.1829 59.7607 15.0492C59.4575 14.9155 59.1297 14.8464 58.7984 14.8464C58.467 14.8464 58.1392 14.9155 57.836 15.0492C57.5327 15.1829 57.2607 15.3783 57.0371 15.6229C56.5872 16.1992 56.3599 16.9182 56.3967 17.6483C56.3629 18.3798 56.5941 19.099 57.0478 19.6737C57.2713 19.9184 57.5434 20.1138 57.8466 20.2475C58.1499 20.3812 58.4776 20.4502 58.809 20.4502C59.1404 20.4502 59.4682 20.3812 59.7714 20.2475C60.0747 20.1138 60.3467 19.9184 60.5703 19.6737C61.0211 19.0978 61.2494 18.3788 61.2134 17.6483Z" fill="#2E343F"/>
<path d="M68.0634 9.25315V16.9278L71.8874 12.7836H74.8789L71.4098 16.5889L75.0763 22.513H71.9835L69.5231 18.577L68.0634 20.146V22.513H65.3949V9.25315H68.0634Z" fill="#2E343F"/>
<path d="M78.3613 20.3168C78.7921 20.6027 79.3016 20.7464 79.8183 20.7278C80.2784 20.7515 80.737 20.6598 81.1526 20.4609C81.3057 20.3917 81.435 20.2788 81.5242 20.1364C81.6134 19.994 81.6587 19.8284 81.6542 19.6604C81.6624 19.5546 81.6462 19.4484 81.6069 19.3498C81.5676 19.2513 81.5062 19.1631 81.4274 19.092C81.2376 18.9527 81.017 18.8612 80.7843 18.8251C80.5175 18.7691 80.0531 18.7024 79.4207 18.6277C78.6985 18.5409 77.9845 18.3954 77.2859 18.1927C76.7647 18.0428 76.2937 17.7552 75.9223 17.3601C75.5656 16.9381 75.3824 16.3963 75.4099 15.8444C75.403 15.2429 75.5901 14.6552 75.9436 14.1686C76.3161 13.6626 76.8239 13.2722 77.4086 13.0425C78.1008 12.7665 78.8411 12.6313 79.5861 12.6448C80.9115 12.6573 81.9789 12.941 82.7884 13.4961C83.1771 13.7473 83.4996 14.0885 83.7286 14.4908C83.9576 14.893 84.0863 15.3445 84.1039 15.807H81.5689C81.5485 15.6229 81.4859 15.4459 81.3859 15.2899C81.2859 15.134 81.1513 15.0032 80.9925 14.9077C80.5929 14.66 80.128 14.5382 79.6582 14.5582C79.2334 14.5385 78.8114 14.6363 78.4387 14.841C78.2996 14.913 78.1828 15.0217 78.1009 15.1553C78.0191 15.2888 77.9753 15.4422 77.9743 15.5989C77.9683 15.6978 77.9876 15.7965 78.0306 15.8858C78.0736 15.975 78.1388 16.0517 78.2199 16.1086C78.4146 16.2351 78.6337 16.3196 78.863 16.3568C79.1298 16.4048 79.5701 16.4635 80.1972 16.5249C81.5101 16.6779 82.5171 16.959 83.218 17.3681C83.9172 17.7791 84.2667 18.4809 84.2667 19.4789C84.2759 20.0813 84.0792 20.6688 83.709 21.1441C83.3026 21.6486 82.7654 22.0317 82.1559 22.2515C81.4202 22.5238 80.64 22.656 79.8557 22.6411C78.5054 22.6411 77.4077 22.3414 76.5627 21.7418C76.161 21.4689 75.8303 21.104 75.5982 20.6774C75.3661 20.2508 75.2393 19.775 75.2284 19.2895H77.7449C77.763 19.4962 77.8279 19.6962 77.9347 19.8742C78.0415 20.0522 78.1874 20.2035 78.3613 20.3168Z" fill="#2E343F"/>
<path d="M90.4177 22.6278C89.4966 22.6486 88.5851 22.4366 87.7678 22.0114C87.0242 21.6135 86.4151 21.0044 86.0173 20.2608C85.5969 19.4552 85.3858 18.5568 85.4035 17.6483C85.3833 16.737 85.5945 15.8354 86.0173 15.0278C86.4192 14.2857 87.0321 13.6793 87.7785 13.2853C88.6021 12.8591 89.5199 12.6471 90.447 12.6689C91.7475 12.6689 92.8069 13.0006 93.6252 13.6642C94.4623 14.356 95.0043 15.3408 95.1409 16.4181H92.3683C92.2763 15.971 92.0366 15.5679 91.6879 15.2733C91.3299 14.9823 90.8787 14.8307 90.4177 14.8464C90.0986 14.8356 89.7814 14.9003 89.4921 15.0353C89.2027 15.1702 88.9493 15.3715 88.7525 15.6229C88.3154 16.205 88.0946 16.9211 88.1281 17.6483C88.0946 18.3755 88.3154 19.0916 88.7525 19.6737C88.9482 19.9271 89.2011 20.1304 89.4906 20.2673C89.78 20.4041 90.0977 20.4705 90.4177 20.4609C90.8883 20.4775 91.349 20.323 91.7146 20.026C92.0709 19.7189 92.3088 19.297 92.387 18.8331H95.1329C95.0082 19.9223 94.4693 20.9217 93.6279 21.6244C92.8006 22.2933 91.7306 22.6278 90.4177 22.6278Z" fill="#2E343F"/>
<path d="M96.6913 20.2608C96.2567 19.4598 96.0378 18.5595 96.0562 17.6483C96.0378 16.7371 96.2567 15.8368 96.6913 15.0358C97.1047 14.2874 97.7306 13.6782 98.4899 13.2853C99.331 12.8796 100.253 12.6689 101.186 12.6689C102.12 12.6689 103.042 12.8796 103.883 13.2853C104.642 13.6782 105.268 14.2874 105.682 15.0358C106.116 15.8368 106.335 16.7371 106.317 17.6483C106.337 18.5631 106.118 19.4674 105.682 20.2715C105.269 21.0132 104.648 21.618 103.896 22.0113C103.055 22.417 102.134 22.6277 101.2 22.6277C100.266 22.6277 99.3443 22.417 98.5033 22.0113C97.739 21.6205 97.1082 21.0112 96.6913 20.2608ZM103.611 17.6483C103.644 16.9165 103.412 16.1973 102.957 15.6229C102.733 15.3783 102.461 15.1829 102.158 15.0492C101.855 14.9155 101.527 14.8464 101.196 14.8464C100.864 14.8464 100.537 14.9155 100.233 15.0492C99.9302 15.1829 99.6581 15.3783 99.4346 15.6229C98.9808 16.1977 98.7497 16.9168 98.7835 17.6483C98.7497 18.3798 98.9808 19.099 99.4346 19.6737C99.6581 19.9184 99.9302 20.1138 100.233 20.2475C100.537 20.3812 100.864 20.4502 101.196 20.4502C101.527 20.4502 101.855 20.3812 102.158 20.2475C102.461 20.1138 102.733 19.9184 102.957 19.6737C103.413 19.0997 103.646 18.3805 103.613 17.6483H103.611Z" fill="#2E343F"/>
<path d="M116.956 22.513H114.592L114.344 21.3389C114.002 21.763 113.565 22.1007 113.069 22.3246C112.572 22.5485 112.03 22.6524 111.486 22.6278C110.975 22.6473 110.465 22.5643 109.986 22.3837C109.508 22.2032 109.07 21.9287 108.7 21.5764C107.988 20.8772 107.632 19.7066 107.632 18.0646V12.7836H110.301V17.7417C110.301 18.6277 110.456 19.2921 110.765 19.7404C110.926 19.9655 111.142 20.1456 111.393 20.2633C111.643 20.381 111.919 20.4326 112.195 20.4129C112.496 20.4264 112.794 20.3652 113.065 20.2348C113.335 20.1044 113.569 19.9088 113.746 19.6657C114.114 19.1667 114.296 18.4675 114.296 17.5736V12.7836H116.964L116.956 22.513Z" fill="#2E343F"/>
<path d="M117.903 15.0358V12.7836H119.505V10.0537H122.173V12.7836H124.388V15.0358H122.173V19.3055C122.149 19.5703 122.226 19.8345 122.389 20.0446C122.49 20.1294 122.606 20.1931 122.732 20.232C122.857 20.271 122.99 20.2844 123.12 20.2715H124.5V22.5237H122.309C120.452 22.5237 119.524 21.5959 119.526 19.7404V15.0358H117.903Z" fill="#2E343F"/>
<path d="M18.3564 7.20005L4.5 15.2V10.4L14.2026 4.80005L18.3564 7.20005Z" fill="#2E343F"/>
<path d="M23.9051 10.4V13.1693L6.9 22.9847L4.5 21.6V18.9949L21.6385 9.09748L23.9051 10.4Z" fill="#2E343F"/>
<path d="M10.1821 24.8821L23.9051 16.9642V21.6L14.2026 27.2L10.1821 24.8821Z" fill="#2E343F"/>
</g>
</g>
</svg>
