<svg width="129" height="32" viewBox="0 0 129 32" fill="none" xmlns="http://www.w3.org/2000/svg">
<g id="Company Logo">
<g id="Logo">
<path fill-rule="evenodd" clip-rule="evenodd" d="M54.5612 13.2112C53.4242 13.2112 52.8936 14.1208 52.5904 14.6513C52.4388 14.9545 52.4388 15.2577 52.2873 15.2577C52.1357 15.2577 52.2115 15.0303 52.1357 14.5755C51.9841 13.8934 51.4535 13.2112 50.3165 13.2112C49.1038 13.2112 48.5732 14.1966 48.3458 14.8029C48.1942 15.1819 48.1942 15.2577 48.0426 15.2577C47.891 15.2577 48.0426 14.9545 48.1184 14.5755C48.27 13.8934 48.1942 13.3628 48.1942 13.3628H46.2993V20.4877H48.8764C48.8764 20.4877 48.8764 17.5316 48.8764 16.9252C48.8764 16.2431 49.1796 15.3335 49.6344 15.3335C50.2407 15.3335 50.3165 15.7883 50.3165 16.6221V20.4877H52.8936C52.8936 20.4877 52.8936 17.4558 52.8936 16.9252C52.8936 16.3189 53.121 15.3335 53.7274 15.3335C54.3338 15.3335 54.4096 15.9399 54.4096 16.6221V20.4877H56.9866C56.9866 20.4877 56.9866 17.6832 56.9866 16.3189C56.9109 14.4997 56.2287 13.2112 54.5612 13.2112Z" fill="#101828"/>
<path fill-rule="evenodd" clip-rule="evenodd" d="M98.5232 13.2112C97.3863 13.2112 96.8557 14.1208 96.5525 14.6513C96.4009 14.9545 96.4009 15.2577 96.2493 15.2577C96.0977 15.2577 96.1735 14.9545 96.0977 14.5755C95.8703 13.8934 95.4156 13.2112 94.2786 13.2112C93.0659 13.2112 92.5353 14.1966 92.3079 14.8029C92.1563 15.1819 92.1563 15.2577 92.0047 15.2577C91.8531 15.2577 92.0047 14.9545 92.0805 14.5755C92.2321 13.8934 92.1563 13.3628 92.1563 13.3628H90.2614V20.4877H92.8385C92.8385 20.4877 92.8385 17.5316 92.8385 16.9252C92.8385 16.2431 93.1417 15.3335 93.5964 15.3335C94.2028 15.3335 94.2786 15.7883 94.2786 16.6221V20.4877H96.8557C96.8557 20.4877 96.8557 17.4558 96.8557 16.9252C96.8557 16.3189 97.0831 15.3335 97.6895 15.3335C98.2958 15.3335 98.3716 15.9399 98.3716 16.6221V20.4877H100.949C100.949 20.4877 100.949 17.6832 100.949 16.3189C100.873 14.4997 100.267 13.2112 98.5232 13.2112Z" fill="#101828"/>
<path d="M61.3071 13.2112C59.3363 13.2112 57.8962 13.9692 57.8962 13.9692V16.0915C57.8962 16.0915 59.4879 15.1819 60.7765 15.1819C61.7618 15.1819 61.9134 15.7125 61.8376 16.1673C61.8376 16.1673 61.5344 16.0915 60.6249 16.0915C58.5026 16.0915 57.4414 17.0768 57.4414 18.5928C57.4414 20.0329 58.6542 20.6393 59.6395 20.6393C61.0797 20.6393 61.7618 19.6539 61.9892 19.1991C62.1408 18.896 62.1408 18.6686 62.2924 18.6686C62.444 18.6686 62.3682 18.8202 62.3682 19.1233C62.3682 19.6539 62.3682 20.1087 62.444 20.4877H64.4147V17.001C64.4905 14.8029 63.6567 13.2112 61.3071 13.2112ZM60.7007 18.896C60.0943 19.0475 59.7911 18.8202 59.7911 18.4412C59.7911 17.9106 60.3975 17.6832 61.2313 17.6832H61.9134C61.9134 17.9106 61.3829 18.7444 60.7007 18.896Z" fill="#101828"/>
<path fill-rule="evenodd" clip-rule="evenodd" d="M68.7351 11.2405H71.3122V20.5635H68.7351V11.2405Z" fill="#101828"/>
<path fill-rule="evenodd" clip-rule="evenodd" d="M74.1925 17.001C74.1925 16.3947 74.7989 15.7883 75.86 15.7883C77.0728 15.7883 77.9823 16.3947 78.2097 16.4705V13.9692C78.2097 13.9692 77.4517 13.2112 75.5568 13.2112C73.5861 13.2112 71.9944 14.3482 71.9944 16.8494C71.9944 19.3507 73.5103 20.7151 75.5568 20.7151C77.2244 20.7151 78.2097 19.8055 78.2097 19.8055V17.4558C77.9065 17.6074 76.997 18.2138 75.86 18.2138C74.6473 18.2138 74.1925 17.6832 74.1925 17.001Z" fill="#101828"/>
<path fill-rule="evenodd" clip-rule="evenodd" d="M83.4397 13.2112C81.9238 13.2112 81.3932 14.6513 81.2416 14.8787C81.09 15.1061 81.09 15.2577 80.9384 15.2577C80.7868 15.2577 80.8626 14.9545 80.9384 14.7271C81.09 14.3482 81.3174 13.4386 81.3174 12.2258C81.3174 11.3921 81.2416 11.1647 81.2416 11.1647H78.9677V20.4877H81.5448C81.5448 20.4877 81.5448 17.5316 81.5448 16.9252C81.5448 16.3189 81.7722 15.3335 82.4543 15.3335C82.9849 15.3335 83.1365 15.7125 83.1365 16.5463V20.4877H85.7136C85.7136 20.4877 85.7136 18.2896 85.7136 16.6978C85.8652 14.9545 85.562 13.2112 83.4397 13.2112Z" fill="#101828"/>
<path fill-rule="evenodd" clip-rule="evenodd" d="M86.6989 13.4386V20.5635H89.276V13.4386C89.276 13.4386 88.8213 13.666 87.9875 13.666C87.1537 13.666 86.6989 13.4386 86.6989 13.4386Z" fill="#101828"/>
<path fill-rule="evenodd" clip-rule="evenodd" d="M87.9875 13.287C88.8666 13.287 89.5792 12.8119 89.5792 12.2258C89.5792 11.6398 88.8666 11.1647 87.9875 11.1647C87.1084 11.1647 86.3958 11.6398 86.3958 12.2258C86.3958 12.8119 87.1084 13.287 87.9875 13.287Z" fill="#101828"/>
<path fill-rule="evenodd" clip-rule="evenodd" d="M65.3243 20.5635H67.9014V13.4386C67.9014 13.4386 67.4466 13.666 66.6128 13.666C65.7791 13.666 65.3243 13.4386 65.3243 13.4386V20.5635Z" fill="#101828"/>
<path fill-rule="evenodd" clip-rule="evenodd" d="M66.6128 13.287C67.4919 13.287 68.2046 12.8119 68.2046 12.2258C68.2046 11.6398 67.4919 11.1647 66.6128 11.1647C65.7337 11.1647 65.0211 11.6398 65.0211 12.2258C65.0211 12.8119 65.7337 13.287 66.6128 13.287Z" fill="#101828"/>
<path d="M106.027 13.2112C104.663 13.2112 104.056 14.1966 103.829 14.8029C103.677 15.1819 103.677 15.2577 103.526 15.2577C103.374 15.2577 103.526 14.9545 103.602 14.5755C103.753 13.8934 103.677 13.3628 103.677 13.3628H101.782V22.4584H104.36C104.36 22.4584 104.36 20.9425 104.36 19.5781C104.663 20.1087 105.269 20.6393 106.103 20.6393C107.998 20.6393 108.907 19.0475 108.907 16.9252C108.907 14.5755 107.77 13.2112 106.027 13.2112ZM105.345 19.0475C104.739 19.0475 104.284 18.2896 104.284 17.2284C104.284 16.2431 104.739 15.4093 105.269 15.4093C106.027 15.4093 106.33 16.0915 106.33 17.2284C106.33 18.3654 106.027 19.0475 105.345 19.0475Z" fill="#101828"/>
<path fill-rule="evenodd" clip-rule="evenodd" d="M36.9763 15.4093H37.5069C37.5827 15.1819 37.5827 14.8787 37.5069 14.4997C37.3553 13.9692 37.2037 13.5902 36.9005 13.666C36.5973 13.7418 36.5215 14.1208 36.6731 14.7271C36.7489 14.9545 36.9005 15.2577 36.9763 15.4093Z" fill="#101828"/>
<path fill-rule="evenodd" clip-rule="evenodd" d="M34.1718 15.8641C34.3992 15.9399 34.5508 16.0157 34.6266 15.9399C34.6266 15.9399 34.6266 15.8641 34.6266 15.7125C34.475 15.4851 34.2476 15.3335 34.0203 15.1819C33.4897 14.9545 32.8833 15.0303 32.4285 15.4093C32.2769 15.5609 32.1253 15.7125 32.1253 15.7883C32.1253 15.7883 32.1253 15.8641 32.2011 15.8641C32.3527 15.8641 32.8075 15.6367 33.3381 15.6367C33.6413 15.6367 33.9445 15.7125 34.1718 15.8641Z" fill="#101828"/>
<path fill-rule="evenodd" clip-rule="evenodd" d="M33.7171 16.0915C33.4139 16.1673 33.2623 16.2431 33.1107 16.3189C33.0349 16.3947 32.9591 16.4705 32.9591 16.5463V16.6221H33.0349C33.1107 16.6221 33.2623 16.5463 33.2623 16.5463C33.7171 16.3947 33.9445 16.3947 34.2476 16.4705H34.475V16.3947C34.3992 16.2431 34.0961 16.0915 33.7171 16.0915Z" fill="#101828"/>
<path fill-rule="evenodd" clip-rule="evenodd" d="M36.0668 17.1526C36.2942 17.2284 36.5215 17.2284 36.5973 17.0768C36.6731 16.9252 36.5973 16.6978 36.37 16.6221C36.1426 16.5463 35.9152 16.5463 35.8394 16.6978C35.7636 16.7736 35.8394 17.001 36.0668 17.1526Z" fill="#101828"/>
<path fill-rule="evenodd" clip-rule="evenodd" d="M37.4311 15.9399C37.2795 15.9399 37.1279 16.0915 37.1279 16.3947C37.1279 16.6221 37.2795 16.8494 37.4311 16.8494C37.5827 16.8494 37.7343 16.6978 37.7343 16.3947C37.7343 16.1673 37.5827 15.9399 37.4311 15.9399Z" fill="#101828"/>
<path fill-rule="evenodd" clip-rule="evenodd" d="M25.91 20.1845C25.8342 20.1087 25.8342 20.1845 25.7584 20.1845C25.6826 20.1845 25.6826 20.1845 25.6068 20.1845C25.4552 20.1845 25.3794 20.1087 25.3036 20.0329C25.2278 19.8813 25.2278 19.7297 25.3036 19.5023C25.3036 19.5023 25.3036 19.4265 25.3794 19.4265C25.531 19.1233 25.7584 18.5928 25.4552 18.138C25.2278 17.759 24.9247 17.5316 24.5457 17.4558C24.1667 17.38 23.7877 17.5316 23.5603 17.8348C23.1813 18.2138 23.1055 18.8202 23.1813 19.0475C23.1813 19.1233 23.2571 19.1233 23.2571 19.1233C23.3329 19.1233 23.4087 19.0475 23.4845 18.896C23.4845 18.896 23.4845 18.896 23.4845 18.8202C23.4845 18.7444 23.5603 18.5928 23.6361 18.4412C23.7119 18.2896 23.8635 18.2138 24.0909 18.138C24.2425 18.0622 24.4699 18.138 24.6215 18.2138C24.8489 18.3654 25.0005 18.7444 24.8489 19.0475C24.7731 19.1991 24.6973 19.5023 24.6973 19.7297C24.7731 20.2603 25.0762 20.4119 25.3036 20.4877C25.6068 20.4877 25.7584 20.3361 25.8342 20.2603C25.9858 20.1845 25.9858 20.1845 25.91 20.1845Z" fill="#101828"/>
<path d="M41.6757 19.1991C41.6757 19.1991 41.5999 18.896 41.5241 18.5928C41.4483 18.2896 41.3725 18.0622 41.3725 18.0622C41.7515 17.5316 41.7515 17.001 41.6757 16.6978C41.5999 16.3189 41.4483 16.0157 41.1451 15.7125C40.842 15.4093 40.2356 15.1061 39.4018 14.8787C39.326 14.8787 39.0228 14.7271 38.947 14.7271C38.947 14.7271 38.947 13.666 38.8712 13.2112C38.8712 12.908 38.7954 12.3774 38.6439 11.9227C38.4923 11.2405 38.1133 10.7099 37.7343 10.3309C38.8712 9.19398 39.5534 7.90543 39.5534 6.84428C39.5534 4.79777 36.9763 4.1156 33.8687 5.40414L33.1865 5.70733L31.9737 4.49458C28.4113 1.38692 17.1176 13.8176 20.7558 16.9252L21.5138 17.6074C21.2864 18.138 21.2106 18.7444 21.2864 19.4265C21.3622 20.2603 21.817 21.0941 22.4992 21.7004C23.1813 22.3068 24.0151 22.6858 24.8489 22.6858C26.2132 25.945 29.4725 27.9158 33.1865 27.9916C37.2037 28.1431 40.6146 26.2482 41.9789 22.8374C42.0547 22.61 42.4337 21.5488 42.4337 20.5635C42.5853 19.6539 42.0547 19.1991 41.6757 19.1991ZM25.2278 21.7762C25.0762 21.7762 25.0004 21.7762 24.8489 21.7762C23.6361 21.7762 22.3476 20.6393 22.196 19.3507C22.0444 17.9106 22.8023 16.8494 24.0909 16.5463C24.2425 16.5463 24.4699 16.4705 24.6215 16.4705C25.3794 16.5463 26.4406 17.0768 26.668 18.6686C26.8954 20.1087 26.5922 21.5488 25.2278 21.7762ZM23.9393 15.7125C23.1055 15.8641 22.4234 16.3189 21.9686 16.9252C21.7412 16.6978 21.2106 16.3189 21.1348 16.0915C20.4526 14.8029 21.8928 12.2258 22.8781 10.7857C25.3794 7.22326 29.3209 4.49458 31.14 5.02516C31.4432 5.10096 32.4285 6.23791 32.4285 6.23791C32.4285 6.23791 30.6094 7.22326 28.9419 8.6634C26.668 10.4067 24.9247 12.9838 23.9393 15.7125ZM36.6731 21.2456C36.6731 21.1699 36.6731 21.0941 36.6731 21.0941C36.6731 21.0941 34.7782 21.3972 32.9591 20.7151C33.1865 20.1087 33.6413 20.3361 34.475 20.3361C35.9152 20.4119 37.1279 20.1845 38.1133 19.9571C38.947 19.7297 40.0082 19.2749 40.842 18.5928C41.1451 19.1991 41.2209 19.8813 41.2209 19.8813C41.2209 19.8813 41.4483 19.8055 41.5999 19.9571C41.7515 20.0329 41.9031 20.2603 41.8273 20.8667C41.6757 21.9278 41.2209 22.7616 40.463 23.5953C40.0082 24.1259 39.4776 24.5049 38.7954 24.8081C38.4923 24.9597 38.1133 25.1113 37.7343 25.2629C34.854 26.1724 31.9737 25.1871 31.0642 22.989C30.9884 22.8374 30.9126 22.6858 30.9126 22.4584C30.5336 21.0183 30.8368 19.2749 31.8979 18.2138C31.9737 18.138 32.0495 18.0622 32.0495 17.9864C32.0495 17.9106 31.9737 17.8348 31.9737 17.759C31.5948 17.2284 30.3062 16.3189 30.6094 14.4997C30.761 13.2112 31.8979 12.3016 32.9591 12.3774H33.1865C33.6413 12.3774 34.0203 12.4532 34.3992 12.4532C35.0056 12.4532 35.612 12.3774 36.2184 11.8469C36.4457 11.6953 36.5973 11.4679 36.9005 11.4679H37.2037C37.3553 11.4679 37.5069 11.5437 37.6585 11.6195C38.1891 11.9985 38.2649 12.8322 38.2649 13.4386C38.2649 13.8176 38.3407 14.6513 38.3407 14.8787C38.3407 15.4093 38.4923 15.5609 38.7954 15.6367C38.947 15.7125 39.0986 15.7125 39.326 15.7883C40.0082 16.0157 40.463 16.1673 40.6904 16.4705C40.842 16.6221 40.9178 16.7736 40.9178 17.001C40.9935 17.6074 40.463 18.3654 39.0228 19.0475C37.4311 19.8055 35.4604 19.9571 34.1718 19.8055C34.096 19.8055 33.7171 19.7297 33.7171 19.7297C32.6559 19.5781 32.0495 20.9425 32.6559 21.9278C33.0349 22.5342 34.1718 22.9132 35.3088 22.9132C37.8859 22.9132 39.8566 21.7762 40.6146 20.8667C40.6146 20.8667 40.6146 20.8667 40.6904 20.7909C40.6904 20.7151 40.6904 20.7151 40.6146 20.7151C40.0082 21.0941 37.3553 22.7616 34.475 22.3068C34.475 22.3068 34.096 22.231 33.7929 22.1552C33.5655 22.0794 33.0349 21.7762 32.9591 21.2456C35.1572 21.9278 36.6731 21.2456 36.6731 21.2456ZM28.5629 10.7857C29.4725 9.72455 30.5336 8.89079 31.519 8.36021C31.519 8.36021 31.5948 8.36021 31.5948 8.43601C31.519 8.5876 31.3674 8.89079 31.2916 9.11818C31.2916 9.11818 31.2916 9.19398 31.3674 9.19398C31.9737 8.81499 33.0349 8.36021 33.9445 8.28442C34.0203 8.28442 34.0203 8.36021 33.9445 8.36021C33.7929 8.43601 33.6413 8.5876 33.5655 8.7392V8.81499C34.2476 8.81499 35.1572 9.04238 35.7636 9.42137C35.8394 9.42137 35.7636 9.49716 35.7636 9.49716C34.854 9.26977 33.3381 9.11818 31.8222 9.49716C30.382 9.80035 29.3209 10.3309 28.5629 10.7857C28.5629 10.9373 28.4871 10.8615 28.5629 10.7857Z" fill="#101828"/>
</g>
</g>
</svg>
