<svg width="129" height="32" viewBox="0 0 129 32" fill="none" xmlns="http://www.w3.org/2000/svg">
<g id="Company Logo">
<g id="Logo">
<path d="M45.5022 12.4774H36.9593V15.0123H43.0185C42.7183 18.5605 39.7617 20.0835 36.9695 20.0835C36.085 20.0874 35.2085 19.915 34.3914 19.5764C33.5742 19.2379 32.8326 18.7399 32.21 18.1116C31.5873 17.4834 31.0961 16.7373 30.7649 15.9171C30.4338 15.0969 30.2693 14.2189 30.2812 13.3344C30.2812 9.49694 33.2521 6.5424 36.9777 6.5424C39.8517 6.5424 41.5453 8.37449 41.5453 8.37449L43.3194 6.53626C43.3194 6.53626 41.0404 4 36.8849 4C31.5934 4 27.5 8.46593 27.5 13.2894C27.5 18.016 31.3505 22.6252 37.0187 22.6252C42.0045 22.6252 45.6544 19.2094 45.6544 14.1587C45.6544 13.0929 45.4995 12.4774 45.4995 12.4774H45.5022Z" fill="#4885ED"/>
<path d="M52.501 10.6412C48.9951 10.6412 46.4827 13.3822 46.4827 16.5776C46.4827 19.8215 48.9187 22.6129 52.5419 22.6129C55.8213 22.6129 58.5077 20.1067 58.5077 16.6472C58.5077 12.6896 55.3825 10.6412 52.501 10.6412ZM52.5351 12.9926C54.2587 12.9926 55.8922 14.3866 55.8922 16.6322C55.8922 18.8293 54.2655 20.2636 52.5269 20.2636C50.6164 20.2636 49.1152 18.7338 49.1152 16.6144C49.1152 14.5401 50.6027 12.9926 52.5406 12.9926H52.5351Z" fill="#DB3236"/>
<path d="M65.589 10.6412C62.0831 10.6412 59.5707 13.3822 59.5707 16.5776C59.5707 19.8215 62.0067 22.6129 65.6299 22.6129C68.9093 22.6129 71.5956 20.1067 71.5956 16.6472C71.5956 12.6896 68.4705 10.6412 65.589 10.6412ZM65.6231 12.9926C67.3467 12.9926 68.9802 14.3866 68.9802 16.6322C68.9802 18.8293 67.3535 20.2636 65.6149 20.2636C63.7044 20.2636 62.2032 18.7338 62.2032 16.6144C62.2032 14.5401 63.6907 12.9926 65.6286 12.9926H65.6231Z" fill="#F4C20D"/>
<path d="M78.4259 10.6481C75.208 10.6481 72.6792 13.4661 72.6792 16.6295C72.6792 20.2322 75.6112 22.6218 78.3699 22.6218C80.0758 22.6218 80.9833 21.9442 81.6452 21.167V22.3475C81.6452 24.4129 80.391 25.65 78.4982 25.65C76.6695 25.65 75.7525 24.2901 75.4277 23.5191L73.1268 24.4743C73.9429 26.2007 75.586 28 78.5173 28C81.7243 28 84.1548 25.985 84.1548 21.7586V11.0076H81.6547V12.0216C80.8837 11.1891 79.8274 10.6481 78.4272 10.6481H78.4259ZM78.6579 12.9953C80.2355 12.9953 81.8553 14.3422 81.8553 16.6424C81.8553 18.9808 80.2382 20.2691 78.6231 20.2691C76.9077 20.2691 75.3117 18.8771 75.3117 16.6643C75.3117 14.3661 76.9698 12.9953 78.6579 12.9953Z" fill="#4885ED"/>
<path d="M95.3288 10.6337C92.2938 10.6337 89.7453 13.0492 89.7453 16.611C89.7453 20.3817 92.5858 22.6177 95.6134 22.6177C98.1462 22.6177 99.7074 21.2325 100.629 19.9907L98.5591 18.6137C98.0221 19.4462 97.1241 20.2616 95.6264 20.2616C93.9437 20.2616 93.1699 19.3404 92.6902 18.4465L100.717 15.1167L100.307 14.141C99.5321 12.2304 97.7225 10.6337 95.3288 10.6337ZM95.4333 12.9359C96.527 12.9359 97.3138 13.5173 97.6481 14.2147L92.2877 16.4548C92.0557 14.7203 93.7001 12.9359 95.4264 12.9359H95.4333Z" fill="#DB3236"/>
<path d="M85.9125 22.2629H88.5491V4.61957H85.9125V22.2629Z" fill="#3CBA54"/>
</g>
</g>
</svg>
